<svg width="26" height="26" viewBox="0 0 26 26" fill="none" xmlns="http://www.w3.org/2000/svg">
<path d="M12.9998 24.6457C6.57567 24.6457 1.354 19.424 1.354 12.9998C1.354 6.57567 6.57567 1.354 12.9998 1.354C19.424 1.354 24.6457 6.57567 24.6457 12.9998C24.6457 19.424 19.424 24.6457 12.9998 24.6457ZM12.9998 2.979C7.47484 2.979 2.979 7.47484 2.979 12.9998C2.979 18.5248 7.47484 23.0207 12.9998 23.0207C18.5248 23.0207 23.0207 18.5248 23.0207 12.9998C23.0207 7.47484 18.5248 2.979 12.9998 2.979Z" fill="#417378" style="fill:#417378;fill:color(display-p3 0.2549 0.4510 0.4706);fill-opacity:1;"/>
<path d="M9.9343 16.8785C9.72847 16.8785 9.52264 16.8026 9.36014 16.6401C9.04597 16.326 9.04597 15.806 9.36014 15.4918L15.4918 9.36014C15.806 9.04597 16.326 9.04597 16.6401 9.36014C16.9543 9.6743 16.9543 10.1943 16.6401 10.5085L10.5085 16.6401C10.3568 16.8026 10.1401 16.8785 9.9343 16.8785Z" fill="#417378" style="fill:#417378;fill:color(display-p3 0.2549 0.4510 0.4706);fill-opacity:1;"/>
<path d="M16.066 16.8785C15.8601 16.8785 15.6543 16.8026 15.4918 16.6401L9.36014 10.5085C9.04597 10.1943 9.04597 9.6743 9.36014 9.36014C9.6743 9.04597 10.1943 9.04597 10.5085 9.36014L16.6401 15.4918C16.9543 15.806 16.9543 16.326 16.6401 16.6401C16.4776 16.8026 16.2718 16.8785 16.066 16.8785Z" fill="#417378" style="fill:#417378;fill:color(display-p3 0.2549 0.4510 0.4706);fill-opacity:1;"/>
</svg>
