<svg width="26" height="20" viewBox="0 0 26 20" fill="none" xmlns="http://www.w3.org/2000/svg">
<path fill-rule="evenodd" clip-rule="evenodd" d="M16.7539 0C17.6843 0 18.6656 0.324688 19.5667 0.683312L20.2254 0.9541C21.8003 1.61417 22.6856 2.99845 23.3719 4.52016C24.4853 6.98847 25.2584 10.2797 25.5262 12.782C25.6534 13.9707 25.6854 15.1651 25.4559 15.9684C25.2105 16.8271 24.3719 17.4347 23.5583 17.9129L23.1564 18.1417L22.7384 18.3733C22.5234 18.4934 22.3028 18.6126 22.0826 18.7288L21.4296 19.0665L20.534 19.5131L19.8129 19.868C19.1956 20.1768 18.4447 19.9265 18.1359 19.309C17.8272 18.6915 18.0774 17.9408 18.6949 17.632L19.6837 17.1447L18.9579 16.3839C17.2207 17.0971 15.1737 17.5 13.0002 17.5C10.8266 17.5 8.77956 17.0971 7.04229 16.3839L6.31775 17.1435L7.30915 17.632C7.92661 17.9408 8.1769 18.6915 7.86816 19.309C7.55942 19.9265 6.80859 20.1768 6.19111 19.868L5.51159 19.5309C5.00819 19.282 4.50489 19.0332 4.00725 18.7731L2.84762 18.1417L2.44578 17.9129C1.63219 17.4347 0.793529 16.8271 0.548199 15.9684C0.318724 15.1651 0.350699 13.9707 0.477899 12.782C0.745624 10.2797 1.51876 6.98847 2.63215 4.52016C3.31855 2.99846 4.20376 1.61417 5.77867 0.9541C6.82385 0.51605 8.0897 0 9.25011 0C10.0038 0 10.5959 0.694038 10.4866 1.43409C11.2958 1.31344 12.1374 1.25 13.0002 1.25C13.8643 1.25 14.7072 1.31364 15.5176 1.43467C15.4079 0.694462 16.0001 0 16.7539 0ZM8.93764 8.125C7.72951 8.125 6.75014 9.10437 6.75014 10.3125C6.75014 11.5206 7.72951 12.5 8.93764 12.5C10.1458 12.5 11.1252 11.5206 11.1252 10.3125C11.1252 9.10437 10.1458 8.125 8.93764 8.125ZM17.0627 8.125C15.8546 8.125 14.8752 9.10437 14.8752 10.3125C14.8752 11.5206 15.8546 12.5 17.0627 12.5C18.2708 12.5 19.2502 11.5206 19.2502 10.3125C19.2502 9.10437 18.2708 8.125 17.0627 8.125Z" fill="#2F9286" style="fill:#2F9286;fill:color(display-p3 0.1855 0.5708 0.5246);fill-opacity:1;"/>
</svg>
