<svg width="32" height="32" viewBox="0 0 32 32" fill="none" xmlns="http://www.w3.org/2000/svg">
<path d="M20.0001 30.3337H12.0001C4.76008 30.3337 1.66675 27.2403 1.66675 20.0003V12.0003C1.66675 4.76033 4.76008 1.66699 12.0001 1.66699H14.6667C15.2134 1.66699 15.6667 2.12033 15.6667 2.66699C15.6667 3.21366 15.2134 3.66699 14.6667 3.66699H12.0001C5.85341 3.66699 3.66675 5.85366 3.66675 12.0003V20.0003C3.66675 26.147 5.85341 28.3337 12.0001 28.3337H20.0001C26.1467 28.3337 28.3334 26.147 28.3334 20.0003V17.3337C28.3334 16.787 28.7867 16.3337 29.3334 16.3337C29.8801 16.3337 30.3334 16.787 30.3334 17.3337V20.0003C30.3334 27.2403 27.2401 30.3337 20.0001 30.3337Z" fill="#E9FFFA" style="fill:#E9FFFA;fill:color(display-p3 0.9125 1.0000 0.9797);fill-opacity:1;"/>
<path d="M11.3333 23.5867C10.5199 23.5867 9.77328 23.2934 9.22661 22.7601C8.57328 22.1067 8.29328 21.1601 8.43994 20.1601L9.01328 16.1467C9.11994 15.3734 9.62661 14.3734 10.1733 13.8267L20.6799 3.32008C23.3333 0.666745 26.0266 0.666745 28.6799 3.32008C30.1333 4.77341 30.7866 6.25341 30.6533 7.73341C30.5333 8.93341 29.8933 10.1067 28.6799 11.3067L18.1733 21.8134C17.6266 22.3601 16.6266 22.8667 15.8533 22.9734L11.8399 23.5467C11.6666 23.5867 11.4933 23.5867 11.3333 23.5867ZM22.0933 4.73341L11.5866 15.2401C11.3333 15.4934 11.0399 16.0801 10.9866 16.4267L10.4133 20.4401C10.3599 20.8267 10.4399 21.1467 10.6399 21.3467C10.8399 21.5467 11.1599 21.6267 11.5466 21.5734L15.5599 21.0001C15.9066 20.9467 16.5066 20.6534 16.7466 20.4001L27.2533 9.89341C28.1199 9.02675 28.5733 8.25341 28.6399 7.53341C28.7199 6.66675 28.2666 5.74675 27.2533 4.72008C25.1199 2.58674 23.6533 3.18674 22.0933 4.73341Z" fill="#E9FFFA" style="fill:#E9FFFA;fill:color(display-p3 0.9125 1.0000 0.9797);fill-opacity:1;"/>
<path d="M26.4668 13.1064C26.3735 13.1064 26.2802 13.093 26.2002 13.0664C22.6935 12.0797 19.9068 9.29304 18.9202 5.78638C18.7735 5.25304 19.0802 4.70638 19.6135 4.54638C20.1468 4.39971 20.6935 4.70638 20.8402 5.23971C21.6402 8.07971 23.8935 10.333 26.7335 11.133C27.2668 11.2797 27.5735 11.8397 27.4268 12.373C27.3068 12.8264 26.9068 13.1064 26.4668 13.1064Z" fill="#E9FFFA" style="fill:#E9FFFA;fill:color(display-p3 0.9125 1.0000 0.9797);fill-opacity:1;"/>
</svg>
