<svg width="24" height="24" viewBox="0 0 24 24" fill="none" xmlns="http://www.w3.org/2000/svg">
<path d="M12.0005 22.7505C6.07049 22.7505 1.25049 17.9305 1.25049 12.0005C1.25049 6.07049 6.07049 1.25049 12.0005 1.25049C12.4105 1.25049 12.7505 1.59049 12.7505 2.00049C12.7505 2.41049 12.4105 2.75049 12.0005 2.75049C6.90049 2.75049 2.75049 6.90049 2.75049 12.0005C2.75049 17.1005 6.90049 21.2505 12.0005 21.2505C17.1005 21.2505 21.2505 17.1005 21.2505 12.0005C21.2505 11.5905 21.5905 11.2505 22.0005 11.2505C22.4105 11.2505 22.7505 11.5905 22.7505 12.0005C22.7505 17.9305 17.9305 22.7505 12.0005 22.7505Z" fill="#417378" style="fill:#417378;fill:color(display-p3 0.2549 0.4510 0.4706);fill-opacity:1;"/>
<path d="M12.9999 11.7507C12.8099 11.7507 12.6199 11.6807 12.4699 11.5307C12.1799 11.2407 12.1799 10.7607 12.4699 10.4707L20.6699 2.27072C20.9599 1.98072 21.4399 1.98072 21.7299 2.27072C22.0199 2.56072 22.0199 3.04072 21.7299 3.33072L13.5299 11.5307C13.3799 11.6807 13.1899 11.7507 12.9999 11.7507Z" fill="#417378" style="fill:#417378;fill:color(display-p3 0.2549 0.4510 0.4706);fill-opacity:1;"/>
<path d="M22.0004 7.58049C21.5904 7.58049 21.2504 7.24049 21.2504 6.83049V2.75049H17.1704C16.7604 2.75049 16.4204 2.41049 16.4204 2.00049C16.4204 1.59049 16.7604 1.25049 17.1704 1.25049H22.0004C22.4104 1.25049 22.7504 1.59049 22.7504 2.00049V6.83049C22.7504 7.24049 22.4104 7.58049 22.0004 7.58049Z" fill="#417378" style="fill:#417378;fill:color(display-p3 0.2549 0.4510 0.4706);fill-opacity:1;"/>
</svg>
