<svg width="25" height="26" viewBox="0 0 25 26" fill="none" xmlns="http://www.w3.org/2000/svg">
<path d="M6.77956 0.888042C7.55284 1.15102 8.50937 1.57014 9.43587 2.19495C10.5587 1.90549 11.7577 1.74982 13.0002 1.74982C14.2413 1.74982 15.4392 1.90518 16.5611 2.19408C17.4873 1.56958 18.4437 1.15067 19.2167 0.88783C20.0878 0.591655 21.3294 0.11073 22.0666 0.927367C22.5671 1.48179 22.6912 2.41229 22.7804 3.1217C22.8802 3.91444 22.9034 4.94777 22.6411 5.97228C23.6447 7.26828 24.2502 8.81537 24.2502 10.4998C24.2502 13.0526 22.8676 15.2683 20.8212 16.8031C19.8793 17.5094 18.7843 18.0839 17.5834 18.4983C17.8514 19.1112 18.0002 19.7882 18.0002 20.4998V24.2498C18.0002 24.9402 17.4404 25.4998 16.7502 25.4998H9.25012C8.55977 25.4998 8.00012 24.9402 8.00012 24.2498V23.0107C6.80597 23.1569 5.80522 23.0276 4.95331 22.6662C4.06357 22.2887 3.44342 21.7032 2.97732 21.1438C2.5352 20.6133 2.05319 19.4184 1.35481 19.1857C0.699886 18.9673 0.345936 18.2594 0.564236 17.6046C0.782549 16.9496 1.49045 16.5957 2.14537 16.8139C2.9776 17.0913 3.51949 17.6916 3.89155 18.1731C4.49037 18.9479 4.97961 19.9617 5.92969 20.3647C6.32039 20.5304 6.89439 20.6404 7.79044 20.5169L8.00019 20.4751C8.0036 19.7724 8.15192 19.1041 8.41682 18.4983C7.21597 18.0839 6.12089 17.5094 5.17906 16.8031C3.13264 15.2683 1.75012 13.0526 1.75012 10.4998C1.75012 8.81734 2.35417 7.27188 3.35566 5.9768C3.0923 4.95149 3.11527 3.91705 3.21496 3.12353C3.21696 3.10759 3.21896 3.09159 3.22097 3.07553C3.31207 2.34868 3.41942 1.4921 3.9289 0.927504C4.66589 0.110817 5.90851 0.59183 6.77956 0.888042Z" fill="#2F9286" style="fill:#2F9286;fill:color(display-p3 0.1855 0.5708 0.5246);fill-opacity:1;"/>
</svg>
