<svg width="28" height="29" viewBox="0 0 28 29" fill="none" xmlns="http://www.w3.org/2000/svg">
<g filter="url(#filter0_d_258_8)">
<path d="M5.00001 22.87C4.26 22.87 3.53 22.59 2.97 22.03C2.43 21.49 2.13 20.77 2.13 20C2.13 19.23 2.43 18.51 2.97 17.97L15.97 4.97001C17.09 3.85 18.91 3.85 20.03 4.97001C20.57 5.51001 20.87 6.23001 20.87 7.00001C20.87 7.77001 20.57 8.49001 20.03 9.03L7.03001 22.03C6.47001 22.59 5.74001 22.87 5.00001 22.87ZM18 5.63001C17.65 5.63001 17.3 5.76001 17.03 6.03001L4.03001 19.03C3.77001 19.29 3.63001 19.63 3.63001 20C3.63001 20.37 3.77001 20.71 4.03001 20.97C4.56001 21.5 5.44001 21.5 5.97001 20.97L18.97 7.97001C19.23 7.71001 19.37 7.37001 19.37 7.00001C19.37 6.63001 19.23 6.29001 18.97 6.03001C18.7 5.76001 18.35 5.63001 18 5.63001Z" fill="#17013F" style="fill:#17013F;fill:color(display-p3 0.0902 0.0039 0.2471);fill-opacity:1;"/>
</g>
<g filter="url(#filter1_d_258_8)">
<path d="M18.01 10.7401C17.82 10.7401 17.63 10.6701 17.48 10.5201L14.48 7.52005C14.19 7.23005 14.19 6.75005 14.48 6.46005C14.77 6.17005 15.25 6.17005 15.54 6.46005L18.54 9.46005C18.83 9.75005 18.83 10.2301 18.54 10.5201C18.39 10.6701 18.2 10.7401 18.01 10.7401Z" fill="#17013F" style="fill:#17013F;fill:color(display-p3 0.0902 0.0039 0.2471);fill-opacity:1;"/>
</g>
<g filter="url(#filter2_d_258_8)">
<path d="M10.0001 6.50005C9.95005 6.50005 9.91005 6.49005 9.86005 6.48005L8.50005 6.08005L7.14005 6.48005C6.96005 6.53005 6.77005 6.48005 6.65005 6.35005C6.52005 6.22005 6.47005 6.04005 6.52005 5.86005L6.92005 4.50005L6.52005 3.14005C6.47005 2.96005 6.52005 2.77005 6.65005 2.65005C6.78005 2.52005 6.97005 2.47005 7.14005 2.52005L8.50005 2.92005L9.86005 2.52005C10.0401 2.47005 10.2201 2.52005 10.3501 2.65005C10.4801 2.78005 10.5301 2.97005 10.4801 3.14005L10.0801 4.50005L10.4801 5.86005C10.5301 6.04005 10.4801 6.23005 10.3501 6.35005C10.2601 6.45005 10.1301 6.50005 10.0001 6.50005ZM8.50005 5.06005C8.55005 5.06005 8.59005 5.07005 8.64005 5.08005L9.26005 5.26005L9.08005 4.64005C9.05005 4.55005 9.05005 4.45005 9.08005 4.36005L9.26005 3.74005L8.64005 3.92005C8.55005 3.95005 8.45005 3.95005 8.36005 3.92005L7.74005 3.74005L7.92005 4.36005C7.95005 4.45005 7.95005 4.55005 7.92005 4.64005L7.74005 5.26005L8.36005 5.08005C8.41005 5.07005 8.45005 5.06005 8.50005 5.06005Z" fill="#17013F" style="fill:#17013F;fill:color(display-p3 0.0902 0.0039 0.2471);fill-opacity:1;"/>
</g>
<g filter="url(#filter3_d_258_8)">
<path d="M6.00005 12.5001C5.95005 12.5001 5.91005 12.4901 5.86005 12.4801L4.50005 12.0801L3.14005 12.4801C2.96005 12.5301 2.78005 12.4801 2.65005 12.3501C2.52005 12.2201 2.47005 12.0301 2.52005 11.8601L2.92005 10.5001L2.52005 9.14005C2.47005 8.96005 2.52005 8.77005 2.65005 8.65005C2.78005 8.53005 2.97005 8.47005 3.14005 8.52005L4.50005 8.92005L5.86005 8.52005C6.03005 8.47005 6.22005 8.52005 6.35005 8.65005C6.48005 8.78005 6.53005 8.97005 6.48005 9.14005L6.08005 10.5001L6.48005 11.8601C6.53005 12.0401 6.48005 12.2301 6.35005 12.3501C6.26005 12.4501 6.13005 12.5001 6.00005 12.5001ZM4.50005 11.0601C4.55005 11.0601 4.59005 11.0701 4.64005 11.0801L5.26005 11.2601L5.08005 10.6401C5.05005 10.5501 5.05005 10.4501 5.08005 10.3601L5.26005 9.74005L4.64005 9.92005C4.55005 9.95005 4.45005 9.95005 4.36005 9.92005L3.74005 9.74005L3.92005 10.3601C3.95005 10.4501 3.95005 10.5501 3.92005 10.6401L3.74005 11.2601L4.36005 11.0801C4.41005 11.0701 4.45005 11.0601 4.50005 11.0601Z" fill="#17013F" style="fill:#17013F;fill:color(display-p3 0.0902 0.0039 0.2471);fill-opacity:1;"/>
</g>
<g filter="url(#filter4_d_258_8)">
<path d="M21.0001 17.5001C20.95 17.5001 20.9101 17.4901 20.8601 17.4801L19.5001 17.0801L18.1401 17.4801C17.9601 17.5301 17.7801 17.4801 17.6501 17.3501C17.5201 17.2201 17.4701 17.0301 17.5201 16.8601L17.9201 15.5001L17.5201 14.1401C17.4701 13.9601 17.5201 13.7701 17.6501 13.6501C17.7801 13.5301 17.9701 13.4701 18.1401 13.5201L19.5001 13.9201L20.8601 13.5201C21.0301 13.4701 21.2201 13.5201 21.3501 13.6501C21.4801 13.7801 21.53 13.9701 21.48 14.1401L21.08 15.5001L21.48 16.8601C21.53 17.0401 21.4801 17.2301 21.3501 17.3501C21.2601 17.4501 21.13 17.5001 21.0001 17.5001ZM19.5001 16.0601C19.5501 16.0601 19.59 16.0701 19.64 16.0801L20.2601 16.2601L20.0801 15.6401C20.0501 15.5501 20.0501 15.4501 20.0801 15.3601L20.2601 14.7401L19.64 14.9201C19.55 14.9501 19.4501 14.9501 19.3601 14.9201L18.7401 14.7401L18.9201 15.3601C18.9501 15.4501 18.9501 15.5501 18.9201 15.6401L18.7401 16.2601L19.3601 16.0801C19.4101 16.0701 19.4501 16.0601 19.5001 16.0601Z" fill="#17013F" style="fill:#17013F;fill:color(display-p3 0.0902 0.0039 0.2471);fill-opacity:1;"/>
</g>
<defs>
<filter id="filter0_d_258_8" x="0.130005" y="2.13" width="26.74" height="26.74" filterUnits="userSpaceOnUse" color-interpolation-filters="sRGB">
<feFlood flood-opacity="0" result="BackgroundImageFix"/>
<feColorMatrix in="SourceAlpha" type="matrix" values="0 0 0 0 0 0 0 0 0 0 0 0 0 0 0 0 0 0 127 0" result="hardAlpha"/>
<feOffset dx="2" dy="2"/>
<feGaussianBlur stdDeviation="2"/>
<feComposite in2="hardAlpha" operator="out"/>
<feColorMatrix type="matrix" values="0 0 0 0 0.192157 0 0 0 0 0.411765 0 0 0 0 0.360784 0 0 0 0.2 0"/>
<feBlend mode="normal" in2="BackgroundImageFix" result="effect1_dropShadow_258_8"/>
<feBlend mode="normal" in="SourceGraphic" in2="effect1_dropShadow_258_8" result="shape"/>
</filter>
<filter id="filter1_d_258_8" x="12.2625" y="4.24255" width="12.495" height="12.4976" filterUnits="userSpaceOnUse" color-interpolation-filters="sRGB">
<feFlood flood-opacity="0" result="BackgroundImageFix"/>
<feColorMatrix in="SourceAlpha" type="matrix" values="0 0 0 0 0 0 0 0 0 0 0 0 0 0 0 0 0 0 127 0" result="hardAlpha"/>
<feOffset dx="2" dy="2"/>
<feGaussianBlur stdDeviation="2"/>
<feComposite in2="hardAlpha" operator="out"/>
<feColorMatrix type="matrix" values="0 0 0 0 0.192157 0 0 0 0 0.411765 0 0 0 0 0.360784 0 0 0 0.2 0"/>
<feBlend mode="normal" in2="BackgroundImageFix" result="effect1_dropShadow_258_8"/>
<feBlend mode="normal" in="SourceGraphic" in2="effect1_dropShadow_258_8" result="shape"/>
</filter>
<filter id="filter2_d_258_8" x="4.50098" y="0.500977" width="11.9982" height="11.999" filterUnits="userSpaceOnUse" color-interpolation-filters="sRGB">
<feFlood flood-opacity="0" result="BackgroundImageFix"/>
<feColorMatrix in="SourceAlpha" type="matrix" values="0 0 0 0 0 0 0 0 0 0 0 0 0 0 0 0 0 0 127 0" result="hardAlpha"/>
<feOffset dx="2" dy="2"/>
<feGaussianBlur stdDeviation="2"/>
<feComposite in2="hardAlpha" operator="out"/>
<feColorMatrix type="matrix" values="0 0 0 0 0.192157 0 0 0 0 0.411765 0 0 0 0 0.360784 0 0 0 0.2 0"/>
<feBlend mode="normal" in2="BackgroundImageFix" result="effect1_dropShadow_258_8"/>
<feBlend mode="normal" in="SourceGraphic" in2="effect1_dropShadow_258_8" result="shape"/>
</filter>
<filter id="filter3_d_258_8" x="0.500977" y="6.50098" width="11.9982" height="11.999" filterUnits="userSpaceOnUse" color-interpolation-filters="sRGB">
<feFlood flood-opacity="0" result="BackgroundImageFix"/>
<feColorMatrix in="SourceAlpha" type="matrix" values="0 0 0 0 0 0 0 0 0 0 0 0 0 0 0 0 0 0 127 0" result="hardAlpha"/>
<feOffset dx="2" dy="2"/>
<feGaussianBlur stdDeviation="2"/>
<feComposite in2="hardAlpha" operator="out"/>
<feColorMatrix type="matrix" values="0 0 0 0 0.192157 0 0 0 0 0.411765 0 0 0 0 0.360784 0 0 0 0.2 0"/>
<feBlend mode="normal" in2="BackgroundImageFix" result="effect1_dropShadow_258_8"/>
<feBlend mode="normal" in="SourceGraphic" in2="effect1_dropShadow_258_8" result="shape"/>
</filter>
<filter id="filter4_d_258_8" x="15.501" y="11.501" width="11.9982" height="11.999" filterUnits="userSpaceOnUse" color-interpolation-filters="sRGB">
<feFlood flood-opacity="0" result="BackgroundImageFix"/>
<feColorMatrix in="SourceAlpha" type="matrix" values="0 0 0 0 0 0 0 0 0 0 0 0 0 0 0 0 0 0 127 0" result="hardAlpha"/>
<feOffset dx="2" dy="2"/>
<feGaussianBlur stdDeviation="2"/>
<feComposite in2="hardAlpha" operator="out"/>
<feColorMatrix type="matrix" values="0 0 0 0 0.192157 0 0 0 0 0.411765 0 0 0 0 0.360784 0 0 0 0.2 0"/>
<feBlend mode="normal" in2="BackgroundImageFix" result="effect1_dropShadow_258_8"/>
<feBlend mode="normal" in="SourceGraphic" in2="effect1_dropShadow_258_8" result="shape"/>
</filter>
</defs>
</svg>
