<svg width="32" height="33" viewBox="0 0 32 33" fill="none" xmlns="http://www.w3.org/2000/svg">
<g filter="url(#filter0_d_613_531)">
<path d="M5.83368 26.0149C4.97035 26.0149 4.11868 25.6883 3.46535 25.0349C2.83535 24.4049 2.48535 23.5649 2.48535 22.6666C2.48535 21.7683 2.83535 20.9283 3.46535 20.2983L18.632 5.13161C19.9387 3.82494 22.062 3.82494 23.3687 5.13161C23.9987 5.76161 24.3487 6.60161 24.3487 7.49994C24.3487 8.39828 23.9987 9.23828 23.3687 9.86828L8.20202 25.0349C7.54868 25.6883 6.69702 26.0149 5.83368 26.0149ZM21.0004 5.90161C20.592 5.90161 20.1837 6.05328 19.8687 6.36828L4.70202 21.5349C4.39868 21.8383 4.23535 22.2349 4.23535 22.6666C4.23535 23.0983 4.39868 23.4949 4.70202 23.7983C5.32035 24.4166 6.34702 24.4166 6.96535 23.7983L22.132 8.63161C22.4354 8.32828 22.5987 7.93161 22.5987 7.49994C22.5987 7.06828 22.4354 6.67161 22.132 6.36828C21.817 6.05328 21.4087 5.90161 21.0004 5.90161Z" fill="#F6F6F6" style="fill:#F6F6F6;fill:color(display-p3 0.9647 0.9647 0.9647);fill-opacity:1;"/>
</g>
<g filter="url(#filter1_d_613_531)">
<path d="M21.0117 11.8633C20.7901 11.8633 20.5684 11.7816 20.3934 11.6066L16.8934 8.10663C16.5551 7.76829 16.5551 7.20829 16.8934 6.86996C17.2317 6.53163 17.7917 6.53163 18.1301 6.86996L21.6301 10.37C21.9684 10.7083 21.9684 11.2683 21.6301 11.6066C21.4551 11.7816 21.2334 11.8633 21.0117 11.8633Z" fill="#F6F6F6" style="fill:#F6F6F6;fill:color(display-p3 0.9647 0.9647 0.9647);fill-opacity:1;"/>
</g>
<g filter="url(#filter2_d_613_531)">
<path d="M11.6662 6.91656C11.6079 6.91656 11.5612 6.9049 11.5029 6.89323L9.91624 6.42656L8.32957 6.89323C8.11957 6.95156 7.89791 6.89323 7.75791 6.74156C7.60624 6.5899 7.5479 6.3799 7.60624 6.1699L8.07291 4.58323L7.60624 2.99656C7.5479 2.78656 7.60624 2.5649 7.75791 2.4249C7.90957 2.27323 8.13124 2.2149 8.32957 2.27323L9.91624 2.7399L11.5029 2.27323C11.7129 2.2149 11.9229 2.27323 12.0746 2.4249C12.2262 2.57656 12.2846 2.79823 12.2262 2.99656L11.7596 4.58323L12.2262 6.1699C12.2846 6.3799 12.2262 6.60156 12.0746 6.74156C11.9696 6.85823 11.8179 6.91656 11.6662 6.91656ZM9.91624 5.23656C9.97457 5.23656 10.0212 5.24823 10.0796 5.2599L10.8029 5.4699L10.5929 4.74656C10.5579 4.64156 10.5579 4.5249 10.5929 4.4199L10.8029 3.69656L10.0796 3.90656C9.97457 3.94156 9.8579 3.94156 9.7529 3.90656L9.02957 3.69656L9.23957 4.4199C9.27457 4.5249 9.27457 4.64156 9.23957 4.74656L9.02957 5.4699L9.7529 5.2599C9.81124 5.24823 9.85791 5.23656 9.91624 5.23656Z" fill="#F6F6F6" style="fill:#F6F6F6;fill:color(display-p3 0.9647 0.9647 0.9647);fill-opacity:1;"/>
</g>
<g filter="url(#filter3_d_613_531)">
<path d="M7.00022 13.9166C6.94189 13.9166 6.89522 13.9049 6.83689 13.8932L5.25022 13.4266L3.66356 13.8932C3.45356 13.9516 3.24356 13.8932 3.09189 13.7416C2.94022 13.5899 2.88189 13.3682 2.94022 13.1699L3.40689 11.5832L2.94022 9.99656C2.88189 9.78656 2.94022 9.5649 3.09189 9.4249C3.24356 9.2849 3.46522 9.2149 3.66356 9.27323L5.25022 9.7399L6.83689 9.27323C7.03522 9.2149 7.25689 9.27323 7.40856 9.4249C7.56022 9.57656 7.61856 9.79823 7.56022 9.99656L7.09356 11.5832L7.56022 13.1699C7.61856 13.3799 7.56022 13.6016 7.40856 13.7416C7.30356 13.8582 7.15189 13.9166 7.00022 13.9166ZM5.25022 12.2366C5.30856 12.2366 5.35522 12.2482 5.41356 12.2599L6.13689 12.4699L5.92689 11.7466C5.89189 11.6416 5.89189 11.5249 5.92689 11.4199L6.13689 10.6966L5.41356 10.9066C5.30856 10.9416 5.19189 10.9416 5.08689 10.9066L4.36356 10.6966L4.57356 11.4199C4.60856 11.5249 4.60856 11.6416 4.57356 11.7466L4.36356 12.4699L5.08689 12.2599C5.14522 12.2482 5.19189 12.2366 5.25022 12.2366Z" fill="#F6F6F6" style="fill:#F6F6F6;fill:color(display-p3 0.9647 0.9647 0.9647);fill-opacity:1;"/>
</g>
<g filter="url(#filter4_d_613_531)">
<path d="M24.5002 19.7501C24.4419 19.7501 24.3952 19.7384 24.3369 19.7267L22.7502 19.2601L21.1636 19.7267C20.9536 19.7851 20.7436 19.7267 20.5919 19.5751C20.4402 19.4234 20.3819 19.2017 20.4402 19.0034L20.9069 17.4167L20.4402 15.8301C20.3819 15.6201 20.4402 15.3984 20.5919 15.2584C20.7436 15.1184 20.9652 15.0484 21.1636 15.1067L22.7502 15.5734L24.3369 15.1067C24.5352 15.0484 24.7569 15.1067 24.9086 15.2584C25.0602 15.4101 25.1186 15.6317 25.0602 15.8301L24.5936 17.4167L25.0602 19.0034C25.1186 19.2134 25.0602 19.4351 24.9086 19.5751C24.8036 19.6917 24.6519 19.7501 24.5002 19.7501ZM22.7502 18.0701C22.8086 18.0701 22.8552 18.0817 22.9136 18.0934L23.6369 18.3034L23.4269 17.5801C23.3919 17.4751 23.3919 17.3584 23.4269 17.2534L23.6369 16.5301L22.9136 16.7401C22.8086 16.7751 22.6919 16.7751 22.5869 16.7401L21.8636 16.5301L22.0736 17.2534C22.1086 17.3584 22.1086 17.4751 22.0736 17.5801L21.8636 18.3034L22.5869 18.0934C22.6452 18.0817 22.6919 18.0701 22.7502 18.0701Z" fill="#F6F6F6" style="fill:#F6F6F6;fill:color(display-p3 0.9647 0.9647 0.9647);fill-opacity:1;"/>
</g>
<defs>
<filter id="filter0_d_613_531" x="0.485352" y="2.15161" width="29.8633" height="29.8633" filterUnits="userSpaceOnUse" color-interpolation-filters="sRGB">
<feFlood flood-opacity="0" result="BackgroundImageFix"/>
<feColorMatrix in="SourceAlpha" type="matrix" values="0 0 0 0 0 0 0 0 0 0 0 0 0 0 0 0 0 0 127 0" result="hardAlpha"/>
<feOffset dx="2" dy="2"/>
<feGaussianBlur stdDeviation="2"/>
<feComposite in2="hardAlpha" operator="out"/>
<feColorMatrix type="matrix" values="0 0 0 0 0.192157 0 0 0 0 0.411765 0 0 0 0 0.360784 0 0 0 0.2 0"/>
<feBlend mode="normal" in2="BackgroundImageFix" result="effect1_dropShadow_613_531"/>
<feBlend mode="normal" in="SourceGraphic" in2="effect1_dropShadow_613_531" result="shape"/>
</filter>
<filter id="filter1_d_613_531" x="14.6396" y="4.61621" width="13.2441" height="13.2471" filterUnits="userSpaceOnUse" color-interpolation-filters="sRGB">
<feFlood flood-opacity="0" result="BackgroundImageFix"/>
<feColorMatrix in="SourceAlpha" type="matrix" values="0 0 0 0 0 0 0 0 0 0 0 0 0 0 0 0 0 0 127 0" result="hardAlpha"/>
<feOffset dx="2" dy="2"/>
<feGaussianBlur stdDeviation="2"/>
<feComposite in2="hardAlpha" operator="out"/>
<feColorMatrix type="matrix" values="0 0 0 0 0.192157 0 0 0 0 0.411765 0 0 0 0 0.360784 0 0 0 0.2 0"/>
<feBlend mode="normal" in2="BackgroundImageFix" result="effect1_dropShadow_613_531"/>
<feBlend mode="normal" in="SourceGraphic" in2="effect1_dropShadow_613_531" result="shape"/>
</filter>
<filter id="filter2_d_613_531" x="5.58398" y="0.250977" width="12.6641" height="12.6655" filterUnits="userSpaceOnUse" color-interpolation-filters="sRGB">
<feFlood flood-opacity="0" result="BackgroundImageFix"/>
<feColorMatrix in="SourceAlpha" type="matrix" values="0 0 0 0 0 0 0 0 0 0 0 0 0 0 0 0 0 0 127 0" result="hardAlpha"/>
<feOffset dx="2" dy="2"/>
<feGaussianBlur stdDeviation="2"/>
<feComposite in2="hardAlpha" operator="out"/>
<feColorMatrix type="matrix" values="0 0 0 0 0.192157 0 0 0 0 0.411765 0 0 0 0 0.360784 0 0 0 0.2 0"/>
<feBlend mode="normal" in2="BackgroundImageFix" result="effect1_dropShadow_613_531"/>
<feBlend mode="normal" in="SourceGraphic" in2="effect1_dropShadow_613_531" result="shape"/>
</filter>
<filter id="filter3_d_613_531" x="0.917969" y="7.25098" width="12.6641" height="12.6655" filterUnits="userSpaceOnUse" color-interpolation-filters="sRGB">
<feFlood flood-opacity="0" result="BackgroundImageFix"/>
<feColorMatrix in="SourceAlpha" type="matrix" values="0 0 0 0 0 0 0 0 0 0 0 0 0 0 0 0 0 0 127 0" result="hardAlpha"/>
<feOffset dx="2" dy="2"/>
<feGaussianBlur stdDeviation="2"/>
<feComposite in2="hardAlpha" operator="out"/>
<feColorMatrix type="matrix" values="0 0 0 0 0.192157 0 0 0 0 0.411765 0 0 0 0 0.360784 0 0 0 0.2 0"/>
<feBlend mode="normal" in2="BackgroundImageFix" result="effect1_dropShadow_613_531"/>
<feBlend mode="normal" in="SourceGraphic" in2="effect1_dropShadow_613_531" result="shape"/>
</filter>
<filter id="filter4_d_613_531" x="18.418" y="13.0845" width="12.6641" height="12.6655" filterUnits="userSpaceOnUse" color-interpolation-filters="sRGB">
<feFlood flood-opacity="0" result="BackgroundImageFix"/>
<feColorMatrix in="SourceAlpha" type="matrix" values="0 0 0 0 0 0 0 0 0 0 0 0 0 0 0 0 0 0 127 0" result="hardAlpha"/>
<feOffset dx="2" dy="2"/>
<feGaussianBlur stdDeviation="2"/>
<feComposite in2="hardAlpha" operator="out"/>
<feColorMatrix type="matrix" values="0 0 0 0 0.192157 0 0 0 0 0.411765 0 0 0 0 0.360784 0 0 0 0.2 0"/>
<feBlend mode="normal" in2="BackgroundImageFix" result="effect1_dropShadow_613_531"/>
<feBlend mode="normal" in="SourceGraphic" in2="effect1_dropShadow_613_531" result="shape"/>
</filter>
</defs>
</svg>
