<svg width="20" height="21" viewBox="0 0 20 21" fill="none" xmlns="http://www.w3.org/2000/svg">
<path d="M17.5 8.63281C17.1583 8.63281 16.875 8.34948 16.875 8.00781V3.63281H12.5C12.1583 3.63281 11.875 3.34948 11.875 3.00781C11.875 2.66615 12.1583 2.38281 12.5 2.38281H17.5C17.8417 2.38281 18.125 2.66615 18.125 3.00781V8.00781C18.125 8.34948 17.8417 8.63281 17.5 8.63281Z" fill="#377275" style="fill:#377275;fill:color(display-p3 0.2139 0.4458 0.4583);fill-opacity:1;"/>
<path d="M7.5 18.6328H2.5C2.15833 18.6328 1.875 18.3495 1.875 18.0078V13.0078C1.875 12.6661 2.15833 12.3828 2.5 12.3828C2.84167 12.3828 3.125 12.6661 3.125 13.0078V17.3828H7.5C7.84167 17.3828 8.125 17.6661 8.125 18.0078C8.125 18.3495 7.84167 18.6328 7.5 18.6328Z" fill="#377275" style="fill:#377275;fill:color(display-p3 0.2139 0.4458 0.4583);fill-opacity:1;"/>
<path d="M11.2499 9.88268C11.0915 9.88268 10.9332 9.82435 10.8082 9.69935C10.5665 9.45768 10.5665 9.05768 10.8082 8.81602L17.0582 2.56602C17.2999 2.32435 17.6999 2.32435 17.9415 2.56602C18.1832 2.80768 18.1832 3.20768 17.9415 3.44935L11.6915 9.69935C11.5665 9.82435 11.4082 9.88268 11.2499 9.88268Z" fill="#377275" style="fill:#377275;fill:color(display-p3 0.2139 0.4458 0.4583);fill-opacity:1;"/>
<path d="M2.49987 18.6327C2.34154 18.6327 2.1832 18.5743 2.0582 18.4493C1.81654 18.2077 1.81654 17.8077 2.0582 17.566L8.3082 11.316C8.54987 11.0743 8.94987 11.0743 9.19154 11.316C9.4332 11.5577 9.4332 11.9577 9.19154 12.1993L2.94154 18.4493C2.81654 18.5743 2.6582 18.6327 2.49987 18.6327Z" fill="#377275" style="fill:#377275;fill:color(display-p3 0.2139 0.4458 0.4583);fill-opacity:1;"/>
</svg>
