<svg width="27" height="30" viewBox="0 0 27 30" fill="none" xmlns="http://www.w3.org/2000/svg">
<g filter="url(#filter0_d_258_22)">
<path d="M12.02 21.53C9.68999 21.53 7.35999 21.16 5.14999 20.42C4.30999 20.13 3.66999 19.54 3.38999 18.77C3.09999 18 3.19999 17.15 3.65999 16.39L4.80999 14.48C5.04999 14.08 5.26999 13.28 5.26999 12.81V9.92004C5.26999 6.20004 8.29999 3.17004 12.02 3.17004C15.74 3.17004 18.77 6.20004 18.77 9.92004V12.81C18.77 13.27 18.99 14.08 19.23 14.49L20.37 16.39C20.8 17.11 20.88 17.98 20.59 18.77C20.3 19.56 19.67 20.16 18.88 20.42C16.68 21.16 14.35 21.53 12.02 21.53ZM12.02 4.67004C9.12999 4.67004 6.76999 7.02004 6.76999 9.92004V12.81C6.76999 13.54 6.46999 14.62 6.09999 15.25L4.94999 17.16C4.72999 17.53 4.66999 17.92 4.79999 18.25C4.91999 18.59 5.21999 18.85 5.62999 18.99C9.80999 20.39 14.24 20.39 18.42 18.99C18.78 18.87 19.06 18.6 19.19 18.24C19.32 17.88 19.29 17.49 19.09 17.16L17.94 15.25C17.56 14.6 17.27 13.53 17.27 12.8V9.92004C17.27 7.02004 14.92 4.67004 12.02 4.67004Z" fill="#17013F" style="fill:#17013F;fill:color(display-p3 0.0902 0.0039 0.2471);fill-opacity:1;"/>
</g>
<g filter="url(#filter1_d_258_22)">
<path d="M13.88 4.94005C13.81 4.94005 13.74 4.93005 13.67 4.91005C13.38 4.83005 13.1 4.77005 12.83 4.73005C11.98 4.62005 11.16 4.68005 10.39 4.91005C10.11 5.00005 9.80999 4.91005 9.61999 4.70005C9.42999 4.49005 9.36999 4.19005 9.47999 3.92005C9.88999 2.87005 10.89 2.18005 12.03 2.18005C13.17 2.18005 14.17 2.86005 14.58 3.92005C14.68 4.19005 14.63 4.49005 14.44 4.70005C14.29 4.86005 14.08 4.94005 13.88 4.94005Z" fill="#17013F" style="fill:#17013F;fill:color(display-p3 0.0902 0.0039 0.2471);fill-opacity:1;"/>
</g>
<g filter="url(#filter2_d_258_22)">
<path d="M12.02 23.8101C11.03 23.8101 10.07 23.4101 9.37002 22.7101C8.67002 22.0101 8.27002 21.0501 8.27002 20.0601H9.77002C9.77002 20.6501 10.01 21.2301 10.43 21.6501C10.85 22.0701 11.43 22.3101 12.02 22.3101C13.26 22.3101 14.27 21.3001 14.27 20.0601H15.77C15.77 22.1301 14.09 23.8101 12.02 23.8101Z" fill="#17013F" style="fill:#17013F;fill:color(display-p3 0.0902 0.0039 0.2471);fill-opacity:1;"/>
</g>
<defs>
<filter id="filter0_d_258_22" x="1.22668" y="1.17004" width="25.535" height="26.36" filterUnits="userSpaceOnUse" color-interpolation-filters="sRGB">
<feFlood flood-opacity="0" result="BackgroundImageFix"/>
<feColorMatrix in="SourceAlpha" type="matrix" values="0 0 0 0 0 0 0 0 0 0 0 0 0 0 0 0 0 0 127 0" result="hardAlpha"/>
<feOffset dx="2" dy="2"/>
<feGaussianBlur stdDeviation="2"/>
<feComposite in2="hardAlpha" operator="out"/>
<feColorMatrix type="matrix" values="0 0 0 0 0.192157 0 0 0 0 0.411765 0 0 0 0 0.360784 0 0 0 0.2 0"/>
<feBlend mode="normal" in2="BackgroundImageFix" result="effect1_dropShadow_258_22"/>
<feBlend mode="normal" in="SourceGraphic" in2="effect1_dropShadow_258_22" result="shape"/>
</filter>
<filter id="filter1_d_258_22" x="7.42517" y="0.180054" width="13.2052" height="10.7648" filterUnits="userSpaceOnUse" color-interpolation-filters="sRGB">
<feFlood flood-opacity="0" result="BackgroundImageFix"/>
<feColorMatrix in="SourceAlpha" type="matrix" values="0 0 0 0 0 0 0 0 0 0 0 0 0 0 0 0 0 0 127 0" result="hardAlpha"/>
<feOffset dx="2" dy="2"/>
<feGaussianBlur stdDeviation="2"/>
<feComposite in2="hardAlpha" operator="out"/>
<feColorMatrix type="matrix" values="0 0 0 0 0.192157 0 0 0 0 0.411765 0 0 0 0 0.360784 0 0 0 0.2 0"/>
<feBlend mode="normal" in2="BackgroundImageFix" result="effect1_dropShadow_258_22"/>
<feBlend mode="normal" in="SourceGraphic" in2="effect1_dropShadow_258_22" result="shape"/>
</filter>
<filter id="filter2_d_258_22" x="6.27002" y="18.0601" width="15.5" height="11.75" filterUnits="userSpaceOnUse" color-interpolation-filters="sRGB">
<feFlood flood-opacity="0" result="BackgroundImageFix"/>
<feColorMatrix in="SourceAlpha" type="matrix" values="0 0 0 0 0 0 0 0 0 0 0 0 0 0 0 0 0 0 127 0" result="hardAlpha"/>
<feOffset dx="2" dy="2"/>
<feGaussianBlur stdDeviation="2"/>
<feComposite in2="hardAlpha" operator="out"/>
<feColorMatrix type="matrix" values="0 0 0 0 0.192157 0 0 0 0 0.411765 0 0 0 0 0.360784 0 0 0 0.2 0"/>
<feBlend mode="normal" in2="BackgroundImageFix" result="effect1_dropShadow_258_22"/>
<feBlend mode="normal" in="SourceGraphic" in2="effect1_dropShadow_258_22" result="shape"/>
</filter>
</defs>
</svg>
