<svg width="34" height="35" viewBox="0 0 34 35" fill="none" xmlns="http://www.w3.org/2000/svg">
<g filter="url(#filter0_d_391_421)">
<path d="M22.0007 10.7283C21.9657 10.7283 21.9424 10.7283 21.9074 10.7283H21.849C19.644 10.6583 17.999 8.95497 17.999 6.85497C17.999 4.70831 19.749 2.96997 21.884 2.96997C24.019 2.96997 25.769 4.71997 25.769 6.85497C25.7574 8.96664 24.1124 10.67 22.0124 10.74C22.0124 10.7283 22.0124 10.7283 22.0007 10.7283ZM21.884 4.70831C20.7057 4.70831 19.749 5.66498 19.749 6.84331C19.749 7.99831 20.6474 8.93165 21.8024 8.97831C21.814 8.96665 21.9074 8.96665 22.0124 8.97831C23.144 8.91998 24.019 7.98665 24.0307 6.84331C24.0307 5.66498 23.074 4.70831 21.884 4.70831Z" fill="#F6F6F6" style="fill:#F6F6F6;fill:color(display-p3 0.9647 0.9647 0.9647);fill-opacity:1;"/>
</g>
<g filter="url(#filter1_d_391_421)">
<path d="M22.0122 19.3269C21.5572 19.3269 21.1022 19.2919 20.6472 19.2102C20.1689 19.1286 19.8539 18.6736 19.9356 18.1953C20.0172 17.7169 20.4722 17.4019 20.9506 17.4836C22.3856 17.7286 23.9022 17.4603 24.9172 16.7836C25.4656 16.4219 25.7572 15.9669 25.7572 15.5119C25.7572 15.0569 25.4539 14.6136 24.9172 14.2519C23.9022 13.5752 22.3622 13.3069 20.9156 13.5636C20.4372 13.6569 19.9822 13.3303 19.9006 12.8519C19.8189 12.3736 20.1339 11.9186 20.6122 11.8369C22.5139 11.4986 24.4856 11.8602 25.8856 12.7936C26.9122 13.4819 27.5072 14.4619 27.5072 15.5119C27.5072 16.5503 26.9239 17.5419 25.8856 18.2419C24.8239 18.9419 23.4472 19.3269 22.0122 19.3269Z" fill="#F6F6F6" style="fill:#F6F6F6;fill:color(display-p3 0.9647 0.9647 0.9647);fill-opacity:1;"/>
</g>
<g filter="url(#filter2_d_391_421)">
<path d="M7.96555 10.7283C7.95388 10.7283 7.94221 10.7283 7.94221 10.7283C5.84221 10.6583 4.19721 8.95491 4.18555 6.85491C4.18555 4.70825 5.93555 2.95825 8.07055 2.95825C10.2055 2.95825 11.9555 4.70825 11.9555 6.84325C11.9555 8.95492 10.3105 10.6583 8.21055 10.7283L7.96555 9.85326L8.04721 10.7283C8.02388 10.7283 7.98888 10.7283 7.96555 10.7283ZM8.08221 8.97826C8.15221 8.97826 8.21055 8.97825 8.28055 8.98992C9.31888 8.94325 10.2289 8.00991 10.2289 6.85491C10.2289 5.67658 9.27222 4.71991 8.09388 4.71991C6.91555 4.71991 5.95888 5.67658 5.95888 6.85491C5.95888 7.99825 6.84555 8.91992 7.97721 8.98992C7.98888 8.97825 8.03555 8.97826 8.08221 8.97826Z" fill="#F6F6F6" style="fill:#F6F6F6;fill:color(display-p3 0.9647 0.9647 0.9647);fill-opacity:1;"/>
</g>
<g filter="url(#filter3_d_391_421)">
<path d="M7.95301 19.3269C6.51801 19.3269 5.14134 18.9419 4.07967 18.2419C3.05301 17.5536 2.45801 16.5619 2.45801 15.5119C2.45801 14.4736 3.05301 13.4819 4.07967 12.7936C5.47967 11.8602 7.45134 11.4986 9.35301 11.8369C9.83134 11.9186 10.1463 12.3736 10.0647 12.8519C9.98301 13.3303 9.52801 13.6569 9.04968 13.5636C7.60301 13.3069 6.07468 13.5752 5.04801 14.2519C4.49968 14.6136 4.20801 15.0569 4.20801 15.5119C4.20801 15.9669 4.51134 16.4219 5.04801 16.7836C6.06301 17.4603 7.57967 17.7286 9.01467 17.4836C9.49301 17.4019 9.94801 17.7286 10.0297 18.1953C10.1113 18.6736 9.79634 19.1286 9.31801 19.2102C8.86301 19.2919 8.40801 19.3269 7.95301 19.3269Z" fill="#F6F6F6" style="fill:#F6F6F6;fill:color(display-p3 0.9647 0.9647 0.9647);fill-opacity:1;"/>
</g>
<g filter="url(#filter4_d_391_421)">
<path d="M15.0007 19.4434C14.9657 19.4434 14.9424 19.4434 14.9074 19.4434H14.849C12.644 19.3734 10.999 17.6701 10.999 15.5701C10.999 13.4234 12.749 11.6851 14.884 11.6851C17.019 11.6851 18.769 13.4351 18.769 15.5701C18.7574 17.6817 17.1124 19.3851 15.0124 19.4551C15.0124 19.4434 15.0124 19.4434 15.0007 19.4434ZM14.884 13.4234C13.7057 13.4234 12.749 14.3801 12.749 15.5584C12.749 16.7134 13.6474 17.6467 14.8024 17.6934C14.814 17.6817 14.9074 17.6817 15.0124 17.6934C16.144 17.6351 17.019 16.7017 17.0307 15.5584C17.0307 14.3917 16.074 13.4234 14.884 13.4234Z" fill="#F6F6F6" style="fill:#F6F6F6;fill:color(display-p3 0.9647 0.9647 0.9647);fill-opacity:1;"/>
</g>
<g filter="url(#filter5_d_391_421)">
<path d="M15.0008 28.0533C13.6008 28.0533 12.2008 27.6917 11.1158 26.9567C10.0891 26.2684 9.49414 25.2884 9.49414 24.2384C9.49414 23.2 10.0775 22.1967 11.1158 21.5083C13.2975 20.0617 16.7158 20.0617 18.8858 21.5083C19.9125 22.1967 20.5075 23.1767 20.5075 24.2267C20.5075 25.265 19.9241 26.2684 18.8858 26.9567C17.8008 27.68 16.4008 28.0533 15.0008 28.0533ZM12.0841 22.9784C11.5358 23.34 11.2441 23.795 11.2441 24.25C11.2441 24.705 11.5475 25.1483 12.0841 25.51C13.6591 26.5717 16.3308 26.5717 17.9058 25.51C18.4541 25.1483 18.7458 24.6934 18.7458 24.2384C18.7458 23.7834 18.4425 23.34 17.9058 22.9784C16.3425 21.9167 13.6708 21.9284 12.0841 22.9784Z" fill="#F6F6F6" style="fill:#F6F6F6;fill:color(display-p3 0.9647 0.9647 0.9647);fill-opacity:1;"/>
</g>
<defs>
<filter id="filter0_d_391_421" x="15.999" y="0.969971" width="15.7695" height="15.77" filterUnits="userSpaceOnUse" color-interpolation-filters="sRGB">
<feFlood flood-opacity="0" result="BackgroundImageFix"/>
<feColorMatrix in="SourceAlpha" type="matrix" values="0 0 0 0 0 0 0 0 0 0 0 0 0 0 0 0 0 0 127 0" result="hardAlpha"/>
<feOffset dx="2" dy="2"/>
<feGaussianBlur stdDeviation="2"/>
<feComposite in2="hardAlpha" operator="out"/>
<feColorMatrix type="matrix" values="0 0 0 0 0.192157 0 0 0 0 0.411765 0 0 0 0 0.360784 0 0 0 0.2 0"/>
<feBlend mode="normal" in2="BackgroundImageFix" result="effect1_dropShadow_391_421"/>
<feBlend mode="normal" in="SourceGraphic" in2="effect1_dropShadow_391_421" result="shape"/>
</filter>
<filter id="filter1_d_391_421" x="17.8877" y="9.7124" width="15.6191" height="15.6145" filterUnits="userSpaceOnUse" color-interpolation-filters="sRGB">
<feFlood flood-opacity="0" result="BackgroundImageFix"/>
<feColorMatrix in="SourceAlpha" type="matrix" values="0 0 0 0 0 0 0 0 0 0 0 0 0 0 0 0 0 0 127 0" result="hardAlpha"/>
<feOffset dx="2" dy="2"/>
<feGaussianBlur stdDeviation="2"/>
<feComposite in2="hardAlpha" operator="out"/>
<feColorMatrix type="matrix" values="0 0 0 0 0.192157 0 0 0 0 0.411765 0 0 0 0 0.360784 0 0 0 0.2 0"/>
<feBlend mode="normal" in2="BackgroundImageFix" result="effect1_dropShadow_391_421"/>
<feBlend mode="normal" in="SourceGraphic" in2="effect1_dropShadow_391_421" result="shape"/>
</filter>
<filter id="filter2_d_391_421" x="2.18555" y="0.958252" width="15.7695" height="15.77" filterUnits="userSpaceOnUse" color-interpolation-filters="sRGB">
<feFlood flood-opacity="0" result="BackgroundImageFix"/>
<feColorMatrix in="SourceAlpha" type="matrix" values="0 0 0 0 0 0 0 0 0 0 0 0 0 0 0 0 0 0 127 0" result="hardAlpha"/>
<feOffset dx="2" dy="2"/>
<feGaussianBlur stdDeviation="2"/>
<feComposite in2="hardAlpha" operator="out"/>
<feColorMatrix type="matrix" values="0 0 0 0 0.192157 0 0 0 0 0.411765 0 0 0 0 0.360784 0 0 0 0.2 0"/>
<feBlend mode="normal" in2="BackgroundImageFix" result="effect1_dropShadow_391_421"/>
<feBlend mode="normal" in="SourceGraphic" in2="effect1_dropShadow_391_421" result="shape"/>
</filter>
<filter id="filter3_d_391_421" x="0.458008" y="9.7124" width="15.6191" height="15.6145" filterUnits="userSpaceOnUse" color-interpolation-filters="sRGB">
<feFlood flood-opacity="0" result="BackgroundImageFix"/>
<feColorMatrix in="SourceAlpha" type="matrix" values="0 0 0 0 0 0 0 0 0 0 0 0 0 0 0 0 0 0 127 0" result="hardAlpha"/>
<feOffset dx="2" dy="2"/>
<feGaussianBlur stdDeviation="2"/>
<feComposite in2="hardAlpha" operator="out"/>
<feColorMatrix type="matrix" values="0 0 0 0 0.192157 0 0 0 0 0.411765 0 0 0 0 0.360784 0 0 0 0.2 0"/>
<feBlend mode="normal" in2="BackgroundImageFix" result="effect1_dropShadow_391_421"/>
<feBlend mode="normal" in="SourceGraphic" in2="effect1_dropShadow_391_421" result="shape"/>
</filter>
<filter id="filter4_d_391_421" x="8.99902" y="9.68506" width="15.7695" height="15.77" filterUnits="userSpaceOnUse" color-interpolation-filters="sRGB">
<feFlood flood-opacity="0" result="BackgroundImageFix"/>
<feColorMatrix in="SourceAlpha" type="matrix" values="0 0 0 0 0 0 0 0 0 0 0 0 0 0 0 0 0 0 127 0" result="hardAlpha"/>
<feOffset dx="2" dy="2"/>
<feGaussianBlur stdDeviation="2"/>
<feComposite in2="hardAlpha" operator="out"/>
<feColorMatrix type="matrix" values="0 0 0 0 0.192157 0 0 0 0 0.411765 0 0 0 0 0.360784 0 0 0 0.2 0"/>
<feBlend mode="normal" in2="BackgroundImageFix" result="effect1_dropShadow_391_421"/>
<feBlend mode="normal" in="SourceGraphic" in2="effect1_dropShadow_391_421" result="shape"/>
</filter>
<filter id="filter5_d_391_421" x="7.49414" y="18.4233" width="19.0137" height="15.6299" filterUnits="userSpaceOnUse" color-interpolation-filters="sRGB">
<feFlood flood-opacity="0" result="BackgroundImageFix"/>
<feColorMatrix in="SourceAlpha" type="matrix" values="0 0 0 0 0 0 0 0 0 0 0 0 0 0 0 0 0 0 127 0" result="hardAlpha"/>
<feOffset dx="2" dy="2"/>
<feGaussianBlur stdDeviation="2"/>
<feComposite in2="hardAlpha" operator="out"/>
<feColorMatrix type="matrix" values="0 0 0 0 0.192157 0 0 0 0 0.411765 0 0 0 0 0.360784 0 0 0 0.2 0"/>
<feBlend mode="normal" in2="BackgroundImageFix" result="effect1_dropShadow_391_421"/>
<feBlend mode="normal" in="SourceGraphic" in2="effect1_dropShadow_391_421" result="shape"/>
</filter>
</defs>
</svg>
