<svg width="26" height="22" viewBox="0 0 26 22" fill="none" xmlns="http://www.w3.org/2000/svg">
<path fill-rule="evenodd" clip-rule="evenodd" d="M22.7216 0.53724C24.0815 -0.0353476 25.5394 1.11456 25.2992 2.57043L22.4631 19.7663C22.1896 21.4243 20.3686 22.3757 18.8475 21.5494C17.5746 20.8581 15.6861 19.7939 13.9841 18.6818C13.1342 18.1264 10.5319 16.3457 10.8517 15.0781C11.1252 13.9942 15.5001 9.92181 18.0001 7.49994C18.9821 6.5486 18.5349 5.99902 17.3751 6.87494C14.4981 9.04782 9.87914 12.3514 8.3517 13.2812C7.00403 14.1014 6.30038 14.2414 5.46107 14.1014C3.92841 13.8461 2.50745 13.4506 1.34734 12.9697C-0.220618 12.3197 -0.144243 10.1649 1.34628 9.53744L22.7216 0.53724Z" fill="#2F9286" style="fill:#2F9286;fill:color(display-p3 0.1855 0.5708 0.5246);fill-opacity:1;"/>
</svg>
