<svg width="32" height="32" viewBox="0 0 32 32" fill="none" xmlns="http://www.w3.org/2000/svg">
<path d="M27.9999 8.97314C27.9732 8.97314 27.9332 8.97314 27.8932 8.97314C20.8399 8.26647 13.7999 7.99981 6.82655 8.70647L4.10655 8.97314C3.54655 9.02647 3.05322 8.62647 2.99989 8.06647C2.94655 7.50647 3.34655 7.02647 3.89322 6.97314L6.61322 6.70647C13.7066 5.98647 20.8932 6.26647 28.0932 6.97314C28.6399 7.02647 29.0399 7.51981 28.9866 8.06647C28.9466 8.58647 28.5066 8.97314 27.9999 8.97314Z" fill="#E9FFFA" style="fill:#E9FFFA;fill:color(display-p3 0.9125 1.0000 0.9797);fill-opacity:1;"/>
<path d="M11.3333 7.62602C11.2799 7.62602 11.2266 7.62602 11.1599 7.61268C10.6266 7.51935 10.2533 6.99935 10.3466 6.46602L10.6399 4.71935C10.8533 3.43935 11.1466 1.66602 14.2533 1.66602H17.7466C20.8666 1.66602 21.1599 3.50602 21.3599 4.73268L21.6533 6.46602C21.7466 7.01268 21.3733 7.53268 20.8399 7.61268C20.2933 7.70602 19.7733 7.33268 19.6933 6.79935L19.3999 5.06602C19.2133 3.90602 19.1733 3.67935 17.7599 3.67935H14.2666C12.8533 3.67935 12.8266 3.86602 12.6266 5.05268L12.3199 6.78602C12.2399 7.27935 11.8133 7.62602 11.3333 7.62602Z" fill="#E9FFFA" style="fill:#E9FFFA;fill:color(display-p3 0.9125 1.0000 0.9797);fill-opacity:1;"/>
<path d="M20.2802 30.3334H11.7202C7.06686 30.3334 6.88019 27.7601 6.73352 25.6801L5.86686 12.2534C5.82686 11.7068 6.25352 11.2268 6.80019 11.1868C7.36019 11.1601 7.82686 11.5734 7.86686 12.1201L8.73352 25.5468C8.88019 27.5734 8.93352 28.3334 11.7202 28.3334H20.2802C23.0802 28.3334 23.1335 27.5734 23.2669 25.5468L24.1335 12.1201C24.1735 11.5734 24.6535 11.1601 25.2002 11.1868C25.7469 11.2268 26.1735 11.6934 26.1335 12.2534L25.2669 25.6801C25.1202 27.7601 24.9335 30.3334 20.2802 30.3334Z" fill="#E9FFFA" style="fill:#E9FFFA;fill:color(display-p3 0.9125 1.0000 0.9797);fill-opacity:1;"/>
<path d="M18.2134 23H13.7734C13.2268 23 12.7734 22.5467 12.7734 22C12.7734 21.4533 13.2268 21 13.7734 21H18.2134C18.7601 21 19.2134 21.4533 19.2134 22C19.2134 22.5467 18.7601 23 18.2134 23Z" fill="#E9FFFA" style="fill:#E9FFFA;fill:color(display-p3 0.9125 1.0000 0.9797);fill-opacity:1;"/>
<path d="M19.3337 17.666H12.667C12.1203 17.666 11.667 17.2127 11.667 16.666C11.667 16.1193 12.1203 15.666 12.667 15.666H19.3337C19.8803 15.666 20.3337 16.1193 20.3337 16.666C20.3337 17.2127 19.8803 17.666 19.3337 17.666Z" fill="#E9FFFA" style="fill:#E9FFFA;fill:color(display-p3 0.9125 1.0000 0.9797);fill-opacity:1;"/>
</svg>
