<svg width="30" height="30" viewBox="0 0 30 30" fill="none" xmlns="http://www.w3.org/2000/svg">
<g filter="url(#filter0_d_98_466)">
<path d="M18.9998 8.91002C18.9698 8.91002 18.9498 8.91002 18.9198 8.91002H18.8698C16.9798 8.85002 15.5698 7.39001 15.5698 5.59001C15.5698 3.75001 17.0698 2.26001 18.8998 2.26001C20.7298 2.26001 22.2298 3.76001 22.2298 5.59001C22.2198 7.40001 20.8098 8.86001 19.0098 8.92001C19.0098 8.91001 19.0098 8.91002 18.9998 8.91002ZM18.8998 3.75002C17.8898 3.75002 17.0698 4.57002 17.0698 5.58002C17.0698 6.57002 17.8398 7.37002 18.8298 7.41002C18.8398 7.40002 18.9198 7.40002 19.0098 7.41002C19.9798 7.36002 20.7298 6.56002 20.7398 5.58002C20.7398 4.57002 19.9198 3.75002 18.8998 3.75002Z" fill="#17013F" style="fill:#17013F;fill:color(display-p3 0.0902 0.0039 0.2471);fill-opacity:1;"/>
</g>
<g filter="url(#filter1_d_98_466)">
<path d="M19.01 16.28C18.62 16.28 18.23 16.25 17.84 16.18C17.43 16.11 17.16 15.72 17.23 15.31C17.3 14.9 17.69 14.63 18.1 14.7C19.33 14.91 20.63 14.68 21.5 14.1C21.97 13.79 22.22 13.4 22.22 13.01C22.22 12.62 21.96 12.24 21.5 11.93C20.63 11.35 19.31 11.12 18.07 11.34C17.66 11.42 17.27 11.14 17.2 10.73C17.13 10.32 17.4 9.93003 17.81 9.86003C19.44 9.57003 21.13 9.88002 22.33 10.68C23.21 11.27 23.72 12.11 23.72 13.01C23.72 13.9 23.22 14.75 22.33 15.35C21.42 15.95 20.24 16.28 19.01 16.28Z" fill="#17013F" style="fill:#17013F;fill:color(display-p3 0.0902 0.0039 0.2471);fill-opacity:1;"/>
</g>
<g filter="url(#filter2_d_98_466)">
<path d="M6.96998 8.91C6.95998 8.91 6.94998 8.91 6.94998 8.91C5.14998 8.85 3.73998 7.39 3.72998 5.59C3.72998 3.75 5.22998 2.25 7.05998 2.25C8.88998 2.25 10.39 3.75 10.39 5.58C10.39 7.39 8.97998 8.85 7.17998 8.91L6.96998 8.16L7.03998 8.91C7.01998 8.91 6.98998 8.91 6.96998 8.91ZM7.06998 7.41C7.12998 7.41 7.17998 7.41 7.23998 7.42C8.12998 7.38 8.90998 6.58 8.90998 5.59C8.90998 4.58 8.08998 3.75999 7.07998 3.75999C6.06998 3.75999 5.24998 4.58 5.24998 5.59C5.24998 6.57 6.00998 7.36 6.97998 7.42C6.98998 7.41 7.02998 7.41 7.06998 7.41Z" fill="#17013F" style="fill:#17013F;fill:color(display-p3 0.0902 0.0039 0.2471);fill-opacity:1;"/>
</g>
<g filter="url(#filter3_d_98_466)">
<path d="M6.96 16.28C5.73 16.28 4.55 15.95 3.64 15.35C2.76 14.76 2.25 13.91 2.25 13.01C2.25 12.12 2.76 11.27 3.64 10.68C4.84 9.88002 6.53 9.57003 8.16 9.86003C8.57 9.93003 8.84 10.32 8.77 10.73C8.7 11.14 8.31 11.42 7.9 11.34C6.66 11.12 5.35 11.35 4.47 11.93C4 12.24 3.75 12.62 3.75 13.01C3.75 13.4 4.01 13.79 4.47 14.1C5.34 14.68 6.64 14.91 7.87 14.7C8.28 14.63 8.67 14.91 8.74 15.31C8.81 15.72 8.54 16.11 8.13 16.18C7.74 16.25 7.35 16.28 6.96 16.28Z" fill="#17013F" style="fill:#17013F;fill:color(display-p3 0.0902 0.0039 0.2471);fill-opacity:1;"/>
</g>
<g filter="url(#filter4_d_98_466)">
<path d="M12.9998 16.38C12.9698 16.38 12.9498 16.38 12.9198 16.38H12.8698C10.9798 16.32 9.56982 14.86 9.56982 13.06C9.56982 11.22 11.0698 9.72998 12.8998 9.72998C14.7298 9.72998 16.2298 11.23 16.2298 13.06C16.2198 14.87 14.8098 16.33 13.0098 16.39C13.0098 16.38 13.0098 16.38 12.9998 16.38ZM12.8998 11.22C11.8898 11.22 11.0698 12.04 11.0698 13.05C11.0698 14.04 11.8398 14.84 12.8298 14.88C12.8398 14.87 12.9198 14.87 13.0098 14.88C13.9798 14.83 14.7298 14.03 14.7398 13.05C14.7398 12.05 13.9198 11.22 12.8998 11.22Z" fill="#17013F" style="fill:#17013F;fill:color(display-p3 0.0902 0.0039 0.2471);fill-opacity:1;"/>
</g>
<g filter="url(#filter5_d_98_466)">
<path d="M12.9998 23.76C11.7998 23.76 10.5998 23.45 9.66978 22.82C8.78978 22.23 8.27979 21.39 8.27979 20.49C8.27979 19.6 8.77978 18.74 9.66978 18.15C11.5398 16.91 14.4698 16.91 16.3298 18.15C17.2098 18.74 17.7198 19.58 17.7198 20.48C17.7198 21.37 17.2198 22.23 16.3298 22.82C15.3998 23.44 14.1998 23.76 12.9998 23.76ZM10.4998 19.41C10.0298 19.72 9.77979 20.11 9.77979 20.5C9.77979 20.89 10.0398 21.27 10.4998 21.58C11.8498 22.49 14.1398 22.49 15.4898 21.58C15.9598 21.27 16.2098 20.88 16.2098 20.49C16.2098 20.1 15.9498 19.72 15.4898 19.41C14.1498 18.5 11.8598 18.51 10.4998 19.41Z" fill="#17013F" style="fill:#17013F;fill:color(display-p3 0.0902 0.0039 0.2471);fill-opacity:1;"/>
</g>
<defs>
<filter id="filter0_d_98_466" x="13.5698" y="0.26001" width="14.66" height="14.66" filterUnits="userSpaceOnUse" color-interpolation-filters="sRGB">
<feFlood flood-opacity="0" result="BackgroundImageFix"/>
<feColorMatrix in="SourceAlpha" type="matrix" values="0 0 0 0 0 0 0 0 0 0 0 0 0 0 0 0 0 0 127 0" result="hardAlpha"/>
<feOffset dx="2" dy="2"/>
<feGaussianBlur stdDeviation="2"/>
<feComposite in2="hardAlpha" operator="out"/>
<feColorMatrix type="matrix" values="0 0 0 0 0.192157 0 0 0 0 0.411765 0 0 0 0 0.360784 0 0 0 0.2 0"/>
<feBlend mode="normal" in2="BackgroundImageFix" result="effect1_dropShadow_98_466"/>
<feBlend mode="normal" in="SourceGraphic" in2="effect1_dropShadow_98_466" result="shape"/>
</filter>
<filter id="filter1_d_98_466" x="15.189" y="7.7533" width="14.531" height="14.5267" filterUnits="userSpaceOnUse" color-interpolation-filters="sRGB">
<feFlood flood-opacity="0" result="BackgroundImageFix"/>
<feColorMatrix in="SourceAlpha" type="matrix" values="0 0 0 0 0 0 0 0 0 0 0 0 0 0 0 0 0 0 127 0" result="hardAlpha"/>
<feOffset dx="2" dy="2"/>
<feGaussianBlur stdDeviation="2"/>
<feComposite in2="hardAlpha" operator="out"/>
<feColorMatrix type="matrix" values="0 0 0 0 0.192157 0 0 0 0 0.411765 0 0 0 0 0.360784 0 0 0 0.2 0"/>
<feBlend mode="normal" in2="BackgroundImageFix" result="effect1_dropShadow_98_466"/>
<feBlend mode="normal" in="SourceGraphic" in2="effect1_dropShadow_98_466" result="shape"/>
</filter>
<filter id="filter2_d_98_466" x="1.72998" y="0.25" width="14.66" height="14.66" filterUnits="userSpaceOnUse" color-interpolation-filters="sRGB">
<feFlood flood-opacity="0" result="BackgroundImageFix"/>
<feColorMatrix in="SourceAlpha" type="matrix" values="0 0 0 0 0 0 0 0 0 0 0 0 0 0 0 0 0 0 127 0" result="hardAlpha"/>
<feOffset dx="2" dy="2"/>
<feGaussianBlur stdDeviation="2"/>
<feComposite in2="hardAlpha" operator="out"/>
<feColorMatrix type="matrix" values="0 0 0 0 0.192157 0 0 0 0 0.411765 0 0 0 0 0.360784 0 0 0 0.2 0"/>
<feBlend mode="normal" in2="BackgroundImageFix" result="effect1_dropShadow_98_466"/>
<feBlend mode="normal" in="SourceGraphic" in2="effect1_dropShadow_98_466" result="shape"/>
</filter>
<filter id="filter3_d_98_466" x="0.25" y="7.7533" width="14.531" height="14.5267" filterUnits="userSpaceOnUse" color-interpolation-filters="sRGB">
<feFlood flood-opacity="0" result="BackgroundImageFix"/>
<feColorMatrix in="SourceAlpha" type="matrix" values="0 0 0 0 0 0 0 0 0 0 0 0 0 0 0 0 0 0 127 0" result="hardAlpha"/>
<feOffset dx="2" dy="2"/>
<feGaussianBlur stdDeviation="2"/>
<feComposite in2="hardAlpha" operator="out"/>
<feColorMatrix type="matrix" values="0 0 0 0 0.192157 0 0 0 0 0.411765 0 0 0 0 0.360784 0 0 0 0.2 0"/>
<feBlend mode="normal" in2="BackgroundImageFix" result="effect1_dropShadow_98_466"/>
<feBlend mode="normal" in="SourceGraphic" in2="effect1_dropShadow_98_466" result="shape"/>
</filter>
<filter id="filter4_d_98_466" x="7.56982" y="7.72998" width="14.66" height="14.66" filterUnits="userSpaceOnUse" color-interpolation-filters="sRGB">
<feFlood flood-opacity="0" result="BackgroundImageFix"/>
<feColorMatrix in="SourceAlpha" type="matrix" values="0 0 0 0 0 0 0 0 0 0 0 0 0 0 0 0 0 0 127 0" result="hardAlpha"/>
<feOffset dx="2" dy="2"/>
<feGaussianBlur stdDeviation="2"/>
<feComposite in2="hardAlpha" operator="out"/>
<feColorMatrix type="matrix" values="0 0 0 0 0.192157 0 0 0 0 0.411765 0 0 0 0 0.360784 0 0 0 0.2 0"/>
<feBlend mode="normal" in2="BackgroundImageFix" result="effect1_dropShadow_98_466"/>
<feBlend mode="normal" in="SourceGraphic" in2="effect1_dropShadow_98_466" result="shape"/>
</filter>
<filter id="filter5_d_98_466" x="6.27979" y="15.22" width="17.4399" height="14.54" filterUnits="userSpaceOnUse" color-interpolation-filters="sRGB">
<feFlood flood-opacity="0" result="BackgroundImageFix"/>
<feColorMatrix in="SourceAlpha" type="matrix" values="0 0 0 0 0 0 0 0 0 0 0 0 0 0 0 0 0 0 127 0" result="hardAlpha"/>
<feOffset dx="2" dy="2"/>
<feGaussianBlur stdDeviation="2"/>
<feComposite in2="hardAlpha" operator="out"/>
<feColorMatrix type="matrix" values="0 0 0 0 0.192157 0 0 0 0 0.411765 0 0 0 0 0.360784 0 0 0 0.2 0"/>
<feBlend mode="normal" in2="BackgroundImageFix" result="effect1_dropShadow_98_466"/>
<feBlend mode="normal" in="SourceGraphic" in2="effect1_dropShadow_98_466" result="shape"/>
</filter>
</defs>
</svg>
